<svg width="908" height="425" viewBox="0 0 908 425" fill="none" xmlns="http://www.w3.org/2000/svg">
<g clip-path="url(#clip0_97_2)">
<path d="M819.043 175.325H286.314C284.052 175.325 281.883 176.295 280.284 178.02C278.684 179.746 277.785 182.087 277.785 184.527C277.785 186.968 278.684 189.309 280.284 191.035C281.883 192.76 284.052 193.73 286.314 193.73H301.404V413.88C301.404 416.321 302.303 418.661 303.902 420.387C305.502 422.113 307.671 423.082 309.933 423.082C312.195 423.082 314.364 422.113 315.964 420.387C317.563 418.661 318.462 416.321 318.462 413.88L318.591 193.73H746.16L785.583 413.88C785.583 416.321 786.482 418.661 788.081 420.387C789.681 422.113 791.85 423.082 794.112 423.082C796.374 423.082 798.543 422.113 800.143 420.387C801.742 418.661 802.641 416.321 802.641 413.88L805.122 193.73H819.043C821.305 193.73 823.474 192.76 825.074 191.035C826.673 189.309 827.572 186.968 827.572 184.527C827.572 182.087 826.673 179.746 825.074 178.02C823.474 176.295 821.305 175.325 819.043 175.325Z" fill="#CCCCCC"/>
<path d="M378.656 134.32V173.29H288.168C285.796 173.379 283.432 172.963 281.209 172.066C278.987 171.169 276.95 169.809 275.214 168.062C273.479 166.316 272.08 164.218 271.096 161.888C270.112 159.558 269.563 157.042 269.481 154.483C269.398 151.924 269.784 149.373 270.615 146.975C271.446 144.577 272.707 142.379 274.326 140.507C275.944 138.634 277.889 137.124 280.048 136.063C282.208 135.002 284.54 134.409 286.911 134.32C287.33 134.305 287.749 134.305 288.168 134.32L378.656 134.32Z" fill="#F2F2F2"/>
<path d="M380.878 172.99C380.878 173.388 380.732 173.769 380.471 174.05C380.211 174.331 379.858 174.489 379.489 174.489H286.556C281.511 174.485 276.674 172.32 273.108 168.47C269.541 164.619 267.538 159.399 267.538 153.955C267.538 148.512 269.541 143.291 273.108 139.44C276.674 135.59 281.511 133.425 286.556 133.421H379.489C379.672 133.421 379.853 133.459 380.022 133.534C380.191 133.609 380.345 133.719 380.474 133.859C380.603 133.998 380.706 134.163 380.776 134.345C380.846 134.527 380.882 134.723 380.882 134.92C380.882 135.117 380.846 135.312 380.776 135.494C380.706 135.676 380.603 135.842 380.474 135.981C380.345 136.12 380.191 136.231 380.022 136.306C379.853 136.381 379.672 136.419 379.489 136.419H286.556C282.25 136.426 278.122 138.276 275.079 141.564C272.037 144.852 270.328 149.309 270.328 153.955C270.328 158.601 272.037 163.058 275.079 166.346C278.122 169.634 282.25 171.484 286.556 171.491H379.489C379.858 171.492 380.211 171.65 380.471 171.931C380.732 172.212 380.878 172.593 380.878 172.99Z" fill="#1CA4AC"/>
<path d="M378.656 143.313H281.416C281.343 143.314 281.272 143.283 281.22 143.227C281.167 143.171 281.138 143.096 281.137 143.016C281.136 142.937 281.165 142.861 281.216 142.804C281.267 142.747 281.338 142.715 281.411 142.714H378.656C378.729 142.715 378.799 142.747 378.85 142.803C378.902 142.859 378.931 142.935 378.931 143.014C378.931 143.093 378.902 143.168 378.85 143.225C378.799 143.281 378.729 143.313 378.656 143.313Z" fill="#CCCCCC"/>
<path d="M378.656 150.508H281.416C281.343 150.508 281.272 150.477 281.22 150.422C281.167 150.366 281.138 150.29 281.137 150.211C281.136 150.132 281.165 150.055 281.216 149.998C281.267 149.942 281.338 149.909 281.411 149.908H378.656C378.729 149.909 378.799 149.941 378.85 149.997C378.902 150.053 378.931 150.129 378.931 150.208C378.931 150.287 378.902 150.363 378.85 150.419C378.799 150.475 378.729 150.507 378.656 150.508Z" fill="#CCCCCC"/>
<path d="M378.656 157.702H281.416C281.343 157.703 281.272 157.672 281.22 157.616C281.167 157.56 281.138 157.485 281.137 157.405C281.136 157.326 281.165 157.25 281.216 157.193C281.267 157.136 281.338 157.104 281.411 157.103H378.656C378.729 157.104 378.799 157.135 378.85 157.192C378.902 157.248 378.931 157.324 378.931 157.402C378.931 157.481 378.902 157.557 378.85 157.613C378.799 157.67 378.729 157.701 378.656 157.702Z" fill="#CCCCCC"/>
<path d="M378.656 164.897H281.416C281.343 164.897 281.272 164.866 281.22 164.81C281.167 164.755 281.138 164.679 281.137 164.6C281.136 164.52 281.165 164.444 281.216 164.387C281.267 164.331 281.338 164.298 281.411 164.297H378.656C378.729 164.298 378.799 164.33 378.85 164.386C378.902 164.442 378.931 164.518 378.931 164.597C378.931 164.676 378.902 164.752 378.85 164.808C378.799 164.864 378.729 164.896 378.656 164.897Z" fill="#CCCCCC"/>
<path d="M361.598 93.2635V132.233H271.11C266.32 132.413 261.661 130.533 258.156 127.006C254.652 123.479 252.589 118.594 252.423 113.426C252.256 108.259 253.999 103.231 257.268 99.4498C260.537 95.6686 265.064 93.4433 269.853 93.2635C270.272 93.2478 270.691 93.2478 271.11 93.2635H361.598Z" fill="#F2F2F2"/>
<path d="M363.821 131.933C363.82 132.331 363.674 132.712 363.414 132.993C363.153 133.274 362.8 133.432 362.432 133.432H269.498C264.451 133.432 259.61 131.269 256.041 127.418C252.472 123.567 250.467 118.344 250.467 112.898C250.467 107.452 252.472 102.229 256.041 98.3785C259.61 94.5276 264.451 92.3642 269.498 92.3642H362.432C362.614 92.3642 362.795 92.403 362.963 92.4783C363.132 92.5536 363.285 92.664 363.414 92.8032C363.543 92.9424 363.645 93.1076 363.715 93.2894C363.785 93.4713 363.821 93.6662 363.821 93.863C363.821 94.0599 363.785 94.2547 363.715 94.4366C363.645 94.6184 363.543 94.7837 363.414 94.9229C363.285 95.062 363.132 95.1724 362.963 95.2478C362.795 95.3231 362.614 95.3619 362.432 95.3619H269.498C265.188 95.3619 261.054 97.2094 258.006 100.498C254.958 103.787 253.245 108.247 253.245 112.898C253.245 117.549 254.958 122.01 258.006 125.298C261.054 128.587 265.188 130.435 269.498 130.435H362.432C362.8 130.435 363.153 130.593 363.414 130.874C363.674 131.155 363.82 131.536 363.821 131.933Z" fill="#3F3D56"/>
<path d="M361.598 102.256H264.358C264.285 102.257 264.214 102.226 264.162 102.17C264.11 102.115 264.08 102.039 264.079 101.959C264.078 101.88 264.107 101.804 264.158 101.747C264.21 101.69 264.28 101.658 264.353 101.657H361.598C361.671 101.658 361.741 101.69 361.793 101.746C361.844 101.802 361.873 101.878 361.873 101.957C361.873 102.036 361.844 102.112 361.793 102.168C361.741 102.224 361.671 102.256 361.598 102.256Z" fill="#CCCCCC"/>
<path d="M361.598 109.451H264.358C264.285 109.451 264.214 109.42 264.162 109.365C264.11 109.309 264.08 109.233 264.079 109.154C264.078 109.075 264.107 108.998 264.158 108.942C264.21 108.885 264.28 108.852 264.353 108.851H361.598C361.671 108.852 361.741 108.884 361.793 108.94C361.844 108.996 361.873 109.072 361.873 109.151C361.873 109.23 361.844 109.306 361.793 109.362C361.741 109.418 361.671 109.45 361.598 109.451Z" fill="#CCCCCC"/>
<path d="M361.598 116.645H264.358C264.285 116.646 264.214 116.615 264.162 116.559C264.11 116.503 264.08 116.428 264.079 116.348C264.078 116.269 264.107 116.193 264.158 116.136C264.21 116.079 264.28 116.047 264.353 116.046H361.598C361.671 116.047 361.741 116.078 361.793 116.135C361.844 116.191 361.873 116.267 361.873 116.346C361.873 116.425 361.844 116.5 361.793 116.556C361.741 116.613 361.671 116.644 361.598 116.645Z" fill="#CCCCCC"/>
<path d="M361.598 123.84H264.358C264.285 123.84 264.214 123.809 264.162 123.753C264.11 123.698 264.08 123.622 264.079 123.543C264.078 123.463 264.107 123.387 264.158 123.33C264.21 123.274 264.28 123.241 264.353 123.24H361.598C361.671 123.241 361.741 123.273 361.793 123.329C361.844 123.385 361.873 123.461 361.873 123.54C361.873 123.619 361.844 123.695 361.793 123.751C361.741 123.807 361.671 123.839 361.598 123.84Z" fill="#CCCCCC"/>
<path d="M466.863 313.222V279.244C466.863 277.742 466.31 276.302 465.326 275.24C464.341 274.178 463.007 273.581 461.615 273.581H342.21C340.818 273.581 339.483 274.178 338.499 275.24C337.514 276.302 336.961 277.742 336.961 279.244V313.222H466.863Z" fill="#CCCCCC"/>
<path d="M466.863 325.964H336.961V369.852H466.863V325.964Z" fill="#CCCCCC"/>
<path d="M336.961 382.594V416.572C336.961 418.074 337.514 419.515 338.499 420.577C339.483 421.639 340.818 422.235 342.21 422.235H461.615C463.007 422.235 464.341 421.639 465.326 420.577C466.31 419.515 466.863 418.074 466.863 416.572V382.594H336.961Z" fill="#CCCCCC"/>
<path d="M401.256 299.065C403.43 299.065 405.193 297.163 405.193 294.817C405.193 292.472 403.43 290.57 401.256 290.57C399.082 290.57 397.32 292.472 397.32 294.817C397.32 297.163 399.082 299.065 401.256 299.065Z" fill="white"/>
<path d="M401.256 355.695C403.43 355.695 405.193 353.793 405.193 351.448C405.193 349.102 403.43 347.2 401.256 347.2C399.082 347.2 397.32 349.102 397.32 351.448C397.32 353.793 399.082 355.695 401.256 355.695Z" fill="white"/>
<path d="M401.467 411.126C403.641 411.126 405.404 409.224 405.404 406.879C405.404 404.533 403.641 402.631 401.467 402.631C399.293 402.631 397.531 404.533 397.531 406.879C397.531 409.224 399.293 411.126 401.467 411.126Z" fill="white"/>
<path d="M452.135 234.839V273.809H361.648C356.86 273.985 352.204 272.103 348.702 268.576C345.2 265.05 343.139 260.167 342.973 255.002C342.806 249.837 344.547 244.811 347.813 241.03C351.079 237.25 355.603 235.023 360.39 234.839C360.809 234.823 361.228 234.823 361.648 234.839H452.135Z" fill="#F2F2F2"/>
<path d="M454.358 273.509C454.358 273.906 454.212 274.288 453.951 274.569C453.691 274.85 453.337 275.008 452.969 275.008H360.036C354.99 275.009 350.15 272.848 346.58 269C343.01 265.151 341.003 259.931 341 254.486C340.997 249.041 342.998 243.818 346.564 239.965C350.129 236.112 354.967 233.945 360.013 233.94H452.969C453.152 233.939 453.333 233.978 453.502 234.053C453.671 234.128 453.824 234.238 453.954 234.377C454.083 234.517 454.186 234.682 454.256 234.864C454.326 235.046 454.362 235.241 454.362 235.439C454.362 235.636 454.326 235.831 454.256 236.013C454.186 236.195 454.083 236.361 453.954 236.5C453.824 236.639 453.671 236.749 453.502 236.824C453.333 236.9 453.152 236.938 452.969 236.937H360.036C355.729 236.944 351.6 238.794 348.557 242.082C345.514 245.37 343.804 249.827 343.804 254.474C343.804 259.121 345.514 263.578 348.557 266.866C351.6 270.154 355.729 272.004 360.036 272.01H452.969C453.338 272.01 453.691 272.168 453.951 272.449C454.212 272.73 454.358 273.112 454.358 273.509Z" fill="#3F3D56"/>
<path d="M452.136 243.832H354.896C354.823 243.833 354.752 243.801 354.7 243.746C354.647 243.69 354.617 243.614 354.617 243.535C354.616 243.456 354.644 243.379 354.696 243.323C354.747 243.266 354.817 243.234 354.891 243.233H452.136C452.209 243.233 452.279 243.265 452.33 243.321C452.382 243.378 452.411 243.453 452.411 243.532C452.411 243.611 452.382 243.687 452.33 243.743C452.279 243.799 452.209 243.831 452.136 243.832Z" fill="#CCCCCC"/>
<path d="M452.136 251.027H354.896C354.823 251.027 354.752 250.996 354.7 250.94C354.647 250.885 354.617 250.809 354.617 250.73C354.616 250.65 354.644 250.574 354.696 250.517C354.747 250.46 354.817 250.428 354.891 250.427H452.136C452.209 250.428 452.279 250.46 452.33 250.516C452.382 250.572 452.411 250.648 452.411 250.727C452.411 250.806 452.382 250.882 452.33 250.938C452.279 250.994 452.209 251.026 452.136 251.027Z" fill="#CCCCCC"/>
<path d="M452.136 258.221H354.896C354.823 258.221 354.752 258.19 354.7 258.135C354.647 258.079 354.617 258.003 354.617 257.924C354.616 257.845 354.644 257.768 354.696 257.712C354.747 257.655 354.817 257.622 354.891 257.621H452.136C452.209 257.622 452.279 257.654 452.33 257.71C452.382 257.766 452.411 257.842 452.411 257.921C452.411 258 452.382 258.076 452.33 258.132C452.279 258.188 452.209 258.22 452.136 258.221Z" fill="#CCCCCC"/>
<path d="M452.136 265.415H354.896C354.823 265.416 354.752 265.385 354.7 265.329C354.647 265.273 354.617 265.198 354.617 265.118C354.616 265.039 354.644 264.963 354.696 264.906C354.747 264.849 354.817 264.817 354.891 264.816H452.136C452.209 264.817 452.279 264.849 452.33 264.905C452.382 264.961 452.411 265.037 452.411 265.116C452.411 265.195 452.382 265.27 452.33 265.326C452.279 265.383 452.209 265.415 452.136 265.415Z" fill="#CCCCCC"/>
<path d="M345.862 80.2633H304.635C304.244 80.263 303.857 80.3598 303.507 80.5465L293.101 86.167C292.759 86.324 292.467 86.5863 292.261 86.9211C292.056 87.2559 291.947 87.6485 291.947 88.0499C291.947 88.4514 292.056 88.8439 292.261 89.1787C292.467 89.5136 292.759 89.7758 293.101 89.9329L303.507 95.5534C303.857 95.74 304.244 95.8369 304.635 95.8365H345.862C346.43 95.872 346.988 95.6646 347.416 95.2591C347.843 94.8537 348.105 94.2829 348.146 93.6704V82.4294C348.105 81.8169 347.843 81.2461 347.416 80.8407C346.988 80.4353 346.43 80.2278 345.862 80.2633Z" fill="#3F3D56"/>
<path d="M348.146 82.4294V93.6705C348.105 94.283 347.843 94.8538 347.416 95.2592C346.988 95.6646 346.43 95.8721 345.862 95.8366H337.648V80.2633H345.862C346.43 80.2278 346.988 80.4353 347.416 80.8407C347.843 81.2462 348.105 81.8169 348.146 82.4294Z" fill="#1CA4AC"/>
<path d="M98.6916 300.527C104 302.541 109.7 303.045 115.242 301.992C120.783 300.938 125.98 298.363 130.332 294.514C141.414 284.478 144.888 267.943 147.715 252.633C150.503 237.539 153.29 222.444 156.078 207.35L138.571 220.356C125.981 229.71 113.107 239.363 104.39 252.911C95.6728 266.459 91.8677 284.954 98.8717 299.614" fill="#E6E6E6"/>
<path d="M100.188 355.352C98.4162 341.426 96.5942 327.321 97.8371 313.246C98.9409 300.746 102.475 288.536 109.671 278.525C113.491 273.222 118.139 268.677 123.406 265.097C124.779 264.162 126.043 266.51 124.676 267.441C115.562 273.656 108.514 282.832 104.546 293.648C100.163 305.675 99.4594 318.786 100.215 331.562C100.671 339.289 101.639 346.965 102.615 354.63C102.692 354.977 102.644 355.342 102.48 355.652C102.317 355.962 102.051 356.194 101.736 356.3C101.414 356.394 101.071 356.347 100.782 356.169C100.492 355.992 100.279 355.698 100.188 355.352Z" fill="#F2F2F2"/>
<path d="M117.255 330.71C119.532 334.443 122.661 337.481 126.342 339.531C130.023 341.581 134.131 342.574 138.271 342.413C148.909 341.868 157.778 333.857 165.762 326.251L189.377 303.754L173.748 302.947C162.508 302.367 150.979 301.826 140.274 305.565C129.569 309.305 119.696 318.305 117.738 330.261" fill="#E6E6E6"/>
<path d="M95.1805 363.358C103.709 347.075 113.602 328.979 131.278 323.195C136.192 321.593 141.346 321.019 146.461 321.504C148.073 321.654 147.67 324.335 146.061 324.185C137.488 323.417 128.931 325.86 121.831 331.102C114.999 336.119 109.68 343.095 105.178 350.492C102.42 355.023 99.9499 359.747 97.4792 364.464C96.6896 365.971 94.3817 364.883 95.1805 363.358Z" fill="#F2F2F2"/>
<path d="M81.5153 380.496C81.8027 376.904 82.9981 373.465 84.9715 370.555C86.9449 367.645 89.6205 365.374 92.707 363.991V354.578H107.34V364.288C110.274 365.739 112.8 368.003 114.659 370.851C116.518 373.698 117.644 377.026 117.922 380.496L121.363 423.651H78.0745L81.5153 380.496Z" fill="#F2F2F2"/>
<path d="M579.143 174.44L574.79 172.463L571.804 148.918H532.038L528.802 172.367L524.907 174.468C524.721 174.568 524.571 174.734 524.483 174.937C524.395 175.141 524.373 175.371 524.421 175.589C524.469 175.808 524.584 176.003 524.747 176.142C524.91 176.282 525.112 176.358 525.321 176.358H578.784C578.997 176.358 579.204 176.278 579.37 176.132C579.535 175.986 579.648 175.783 579.69 175.557C579.733 175.332 579.701 175.097 579.601 174.893C579.501 174.69 579.339 174.53 579.143 174.44Z" fill="#E6E6E6"/>
<path d="M649.808 152.051H454.47C453.445 152.048 452.463 151.607 451.739 150.824C451.015 150.042 450.609 148.981 450.609 147.875V118.155H653.67V147.875C653.67 148.981 653.263 150.042 652.539 150.824C651.815 151.607 650.833 152.048 649.808 152.051Z" fill="#CCCCCC"/>
<path d="M653.874 132.201H450.43V5.03361C450.432 3.69906 450.924 2.41961 451.798 1.47595C452.673 0.5323 453.859 0.00149328 455.096 0H649.208C650.445 0.00149325 651.631 0.532301 652.506 1.47595C653.38 2.41961 653.872 3.69905 653.874 5.03361L653.874 132.201Z" fill="#3F3D56"/>
<path d="M641.723 122.971H462.581C461.628 122.97 460.714 122.561 460.039 121.834C459.365 121.106 458.986 120.12 458.985 119.091V13.1104C458.986 12.0815 459.365 11.0951 460.039 10.3676C460.713 9.64004 461.628 9.2308 462.581 9.22961H641.723C642.677 9.2308 643.591 9.64004 644.265 10.3676C644.939 11.0951 645.319 12.0815 645.32 13.1104V119.091C645.319 120.12 644.939 121.106 644.265 121.834C643.591 122.561 642.677 122.97 641.723 122.971Z" fill="white"/>
<path d="M594.54 160.367C595.696 159.214 597.073 158.349 598.573 157.832C600.073 157.316 601.66 157.161 603.221 157.377C604.783 157.594 606.282 158.178 607.611 159.087C608.941 159.996 610.071 161.209 610.919 162.64L635.15 157.992L641.36 173.191L607.055 179.236C604.733 180.615 602.022 181.027 599.437 180.393C596.852 179.76 594.572 178.125 593.03 175.799C591.487 173.473 590.788 170.618 591.067 167.773C591.345 164.929 592.581 162.294 594.54 160.367Z" fill="#FFB6B6"/>
<path d="M616.974 179.773L642.235 179.434L645.433 179.387L696.828 178.688C696.828 178.688 710.785 164.322 722.938 149.531L721.234 136.237C719.573 123.191 713.575 111.24 704.357 102.61C686.951 115.159 676.857 139.998 676.857 139.998L644.99 148.222L641.802 149.044L622.001 154.149L616.974 179.773Z" fill="#1CA4AC"/>
<path d="M746.29 261.48H699.136C699.136 263.66 647.591 265.43 647.591 265.43C646.454 266.353 645.418 267.413 644.502 268.589C641.75 272.13 640.247 276.606 640.256 281.227V284.386C640.257 289.622 642.186 294.644 645.618 298.347C649.05 302.049 653.703 304.13 658.557 304.132H746.29C751.142 304.128 755.795 302.046 759.226 298.344C762.657 294.642 764.586 289.622 764.591 284.386V281.227C764.584 275.992 762.654 270.974 759.223 267.272C755.792 263.57 751.141 261.488 746.29 261.48Z" fill="#E4E4E4"/>
<path d="M712 303.348H692.967V421.883H712V303.348Z" fill="#E4E4E4"/>
<path d="M638.796 421.162C638.796 423.38 667.637 422.02 703.215 422.02C738.793 422.02 767.635 423.381 767.635 421.162C767.635 418.943 738.793 401.347 703.215 401.347C667.637 401.347 638.796 418.943 638.796 421.162Z" fill="#E4E4E4"/>
<path d="M626.011 407.618L611.845 407.617L605.107 348.665L626.012 348.666L626.011 407.618Z" fill="#FFB6B6"/>
<path d="M629.623 422.433L583.948 422.431V421.808C583.949 416.72 585.822 411.842 589.156 408.245C592.49 404.647 597.011 402.626 601.726 402.626H601.727L629.624 402.627L629.623 422.433Z" fill="#2F2E41"/>
<path d="M584.144 407.618L569.979 407.617L563.24 348.665L584.146 348.666L584.144 407.618Z" fill="#FFB6B6"/>
<path d="M587.757 422.433L542.082 422.431V421.808C542.082 416.72 543.956 411.842 547.289 408.245C550.623 404.647 555.145 402.626 559.86 402.626H559.861L587.757 402.627L587.757 422.433Z" fill="#2F2E41"/>
<path d="M711.032 68.2264C724.635 68.2264 735.662 56.3287 735.662 41.6522C735.662 26.9756 724.635 15.0779 711.032 15.0779C697.43 15.0779 686.403 26.9756 686.403 41.6522C686.403 56.3287 697.43 68.2264 711.032 68.2264Z" fill="#FFB6B6"/>
<path d="M750.894 223.728C750.894 223.728 759.158 270.877 727.716 276.881C696.273 282.885 650.885 287.105 650.885 287.105L630.502 389.711L603.119 387.074C603.119 387.074 606.761 263.559 615.717 253.895C624.673 244.232 681.279 215.298 681.279 215.298L750.894 223.728Z" fill="#2F2E41"/>
<path d="M689.485 203.968L675.733 218.853C675.733 218.853 576.439 236.11 572.608 260.854C566.825 298.213 559.994 379.452 559.994 379.452L589.848 377.036L601.555 284.689L649.321 272.966L703.665 241.011L689.485 203.968Z" fill="#2F2E41"/>
<path d="M734.733 25.7893C732.301 20.8399 729.212 10.9758 724.305 9.14637C721.58 8.1714 718.763 7.52399 715.906 7.21591L707.565 10.6773L712.105 6.86786C711.221 6.81105 710.338 6.7646 709.455 6.72853L703.827 9.06396L706.706 6.64772C701.46 6.58961 696.044 7.17823 691.979 10.6245C688.513 13.5623 685.079 24.6917 684.524 29.4092C683.93 33.9222 684.138 38.5158 685.136 42.945L686.561 44.4072C687.06 43.1738 687.435 41.8863 687.679 40.5669C688.19 38.1015 689.172 35.778 690.561 33.7445C691.95 31.711 693.717 30.012 695.748 28.7559L695.826 28.7087C698.216 27.2571 701.117 27.3241 703.858 27.4305L716.877 27.936C720.009 28.0576 723.382 28.2714 725.824 30.3914C727.376 31.9552 728.596 33.8626 729.401 35.9828C730.614 38.6252 732.985 48.5918 732.985 48.5918C732.985 48.5918 734.327 46.7105 734.97 48.1107C736.001 44.4574 736.628 40.6852 736.838 36.8729C737.043 33.0436 736.317 29.223 734.733 25.7893Z" fill="#2F2E41"/>
<path d="M820.875 53.3223C819.304 53.4339 817.775 53.9159 816.395 54.7342C815.015 55.5525 813.818 56.6873 812.889 58.0586C811.96 59.4299 811.32 61.0044 811.016 62.6712C810.711 64.338 810.75 66.0565 811.127 67.7057L791.322 83.469L797.264 98.7916L824.944 76.107C827.47 75.2386 829.612 73.4007 830.966 70.9416C832.32 68.4825 832.791 65.573 832.289 62.7645C831.787 59.956 830.348 57.4436 828.245 55.7033C826.141 53.9631 823.519 53.1159 820.875 53.3223Z" fill="#FFB6B6"/>
<path d="M817.687 85.5031L768.036 145C768.036 145 744.293 136.799 725.929 127.908L717.68 100.569C715.764 94.2271 714.947 87.5587 715.268 80.8973C740.725 73.5884 770.334 100.784 770.334 100.784L807.499 69.3727L817.687 85.5031Z" fill="#1CA4AC"/>
<path d="M701.833 228.123C692.975 224.821 683.815 221.408 673.935 220.126L673.511 220.071L673.628 219.627C683.855 180.882 681.303 156.096 676.291 118.866C675.225 110.835 676.594 102.648 680.195 95.5259C683.796 88.404 689.434 82.7295 696.27 79.3493L696.33 79.3197L724.548 77.385L724.612 77.3808L745.134 83.8932C748.087 84.837 750.671 86.7991 752.49 89.4789C754.31 92.1587 755.266 95.4084 755.21 98.73C754.988 110.974 755.459 124.644 755.959 139.117C757.078 171.585 758.236 205.159 751.665 226.942L751.631 227.056L751.543 227.13C745.502 232.439 737.934 235.307 730.143 235.241C720.932 235.241 711.532 231.738 701.833 228.123Z" fill="#1CA4AC"/>
<path d="M906.688 425H1.31214C0.964141 425 0.630396 424.851 0.384323 424.585C0.138249 424.32 0 423.96 0 423.584C0 423.209 0.138249 422.849 0.384323 422.583C0.630396 422.318 0.964141 422.168 1.31214 422.168H906.688C907.036 422.168 907.37 422.318 907.616 422.583C907.862 422.849 908 423.209 908 423.584C908 423.96 907.862 424.32 907.616 424.585C907.37 424.851 907.036 425 906.688 425Z" fill="#CCCCCC"/>
</g>
<defs>
<clipPath id="clip0_97_2">
<rect width="908" height="425" fill="white"/>
</clipPath>
</defs>
</svg>
